<?xml version="1.0" encoding="utf-8"?>
<svg width="96px" height="96px" viewBox="0 0 513.44604 513.44604" version="1.1" xmlns:xlink="http://www.w3.org/1999/xlink" xmlns="http://www.w3.org/2000/svg">
  <defs>
    <linearGradient x1="0.17751244" y1="0.6646396" x2="0.7972301" y2="0.28156072" id="gradient_1">
      <stop offset="0%" stop-color="#408FFF" />
      <stop offset="50.170708%" stop-color="#E876D1" />
      <stop offset="100%" stop-color="#FFAA00" />
    </linearGradient>
    <linearGradient x1="-0.0273813" y1="0.23158401" x2="1.0273812" y2="0.7684189" id="gradient_2">
      <stop offset="0%" stop-color="#9C62CD" />
      <stop offset="100%" stop-color="#D7D9EA" />
    </linearGradient>
    <linearGradient x1="0.5" y1="0" x2="0.5" y2="1" id="gradient_3">
      <stop offset="0%" stop-color="#FEFEFE" />
      <stop offset="100%" stop-color="#F7F7F7" />
    </linearGradient>
    <linearGradient x1="0.54740787" y1="0.73928607" x2="0.5604365" y2="0.08294213" id="gradient_4">
      <stop offset="0%" stop-color="#C4C4C4" />
      <stop offset="100%" stop-color="#C4C4C4" stop-opacity="0" />
    </linearGradient>
    <linearGradient x1="0.49999547" y1="0" x2="0.44798446" y2="0.92839074" id="gradient_5">
      <stop offset="28.959501%" stop-color="#2C2B2B" />
      <stop offset="100%" stop-color="#2C2B2B" stop-opacity="0.5411765" />
    </linearGradient>
    <linearGradient x1="0" y1="0" x2="1" y2="1" id="gradient_6">
      <stop offset="0%" stop-color="#CA26FF" />
      <stop offset="100%" stop-color="#FFF3B0" />
    </linearGradient>
    <linearGradient x1="0" y1="0" x2="1" y2="1" id="gradient_7">
      <stop offset="0%" stop-color="#FFF3B0" />
      <stop offset="100%" stop-color="#CA26FF" />
    </linearGradient>
    <linearGradient x1="1.0956101" y1="0.022397041" x2="0.038304687" y2="1.0235667" id="gradient_8">
      <stop offset="19.999998%" stop-color="#B833E1" />
      <stop offset="75%" stop-color="#592ACB" />
    </linearGradient>
  </defs>
  <g id="NotifyWPF-Logo" transform="translate(0.7230072 0.7230072)">
    <path d="M0 0L512 0L512 512L0 512L0 0Z" id="Background" fill="none" fill-rule="evenodd" stroke="none" />
    <g id="Logo" transform="translate(40.915726 12.000015)">
      <g id="Icon">
        <path d="M15.0697 112.523L201.465 4.90787C210.192 -0.13057 220.944 -0.13057 229.67 4.90787L416.064 112.523C424.792 117.561 430.169 126.873 430.169 136.949L430.169 352.18C430.169 362.256 424.792 371.568 416.064 376.606L229.67 484.221C220.944 489.26 210.192 489.26 201.465 484.221L15.0697 376.606C6.34419 371.568 0.967163 362.256 0.967163 352.18L0.967163 136.949C0.967163 126.873 6.34419 117.561 15.0697 112.523L15.0697 112.523Z" id="Shape" fill="url(#gradient_1)" fill-rule="evenodd" stroke="url(#gradient_2)" stroke-width="1.44601" />
        <path d="M15.0697 112.523L201.465 4.90787C210.192 -0.13057 220.944 -0.13057 229.67 4.90787L416.064 112.523C424.792 117.561 430.169 126.873 430.169 136.949L430.169 352.18C430.169 362.256 424.792 371.568 416.064 376.606L229.67 484.221C220.944 489.26 210.192 489.26 201.465 484.221L15.0697 376.606C6.34419 371.568 0.967163 362.256 0.967163 352.18L0.967163 136.949C0.967163 126.873 6.34419 117.561 15.0697 112.523L15.0697 112.523Z" id="Shape" fill="none" fill-rule="evenodd" stroke="url(#gradient_3)" stroke-width="1.44601" />
        <path d="M42.5465 351.143L136.942 403.265L97.9308 120.355L40.2529 151.816L42.5465 351.143L42.5465 351.143Z" id="Shape" fill="url(#gradient_4)" fill-opacity="0.5" fill-rule="evenodd" stroke="none" />
        <path d="M217.111 447.986L217.111 50.0487L391.26 138.251L395.218 350.553L217.111 447.986L217.111 447.986Z" id="Shape" fill="url(#gradient_5)" fill-opacity="0.1" fill-rule="evenodd" stroke="none" />
        <g id="Stars" transform="translate(39.52144 58.757736)">
          <path d="M58.0285 182.557C58.167 182.452 58.3647 182.479 58.4699 182.617C58.5752 182.756 58.5483 182.953 58.4098 183.058C58.2712 183.164 58.0736 183.137 57.9683 182.998C57.8631 182.86 57.89 182.662 58.0285 182.557Z" id="Circle" fill="#FFFFFF" fill-rule="evenodd" stroke="none" />
          <path d="M58.0285 182.557C58.167 182.452 58.3647 182.479 58.4699 182.617C58.5752 182.756 58.5483 182.953 58.4098 183.058C58.2712 183.164 58.0736 183.137 57.9683 182.998C57.8631 182.86 57.89 182.662 58.0285 182.557Z" id="Circle" fill="#FFFFFF" fill-rule="evenodd" stroke="none" />
          <path d="M61.3481 175.637C61.198 175.724 61.005 175.674 60.9171 175.524C60.8291 175.374 60.8795 175.181 61.0296 175.093C61.1797 175.005 61.3727 175.055 61.4607 175.205C61.5486 175.356 61.4982 175.549 61.3481 175.637Z" id="Circle" fill="#FFFFFF" fill-rule="evenodd" stroke="none" />
          <path d="M61.3481 175.637C61.198 175.724 61.005 175.674 60.9171 175.524C60.8291 175.374 60.8795 175.181 61.0296 175.093C61.1797 175.005 61.3727 175.055 61.4607 175.205C61.5486 175.356 61.4982 175.549 61.3481 175.637Z" id="Circle" fill="#FFFFFF" fill-rule="evenodd" stroke="none" />
          <path d="M325.13 291.425C324.575 290.696 324.717 289.655 325.447 289.1C326.177 288.546 327.218 288.687 327.772 289.417C328.327 290.147 328.185 291.188 327.455 291.743C326.725 292.297 325.684 292.155 325.13 291.425Z" id="Circle" fill="#FFFFFF" fill-rule="evenodd" stroke="none" />
          <path d="M325.13 291.425C324.575 290.696 324.717 289.655 325.447 289.1C326.177 288.546 327.218 288.687 327.772 289.417C328.327 290.147 328.185 291.188 327.455 291.743C326.725 292.297 325.684 292.155 325.13 291.425Z" id="Circle" fill="#FFFFFF" fill-rule="evenodd" stroke="none" />
          <path d="M10.517 225.936C9.96243 225.206 10.1044 224.165 10.8341 223.61C11.5638 223.056 12.6049 223.198 13.1595 223.927C13.7141 224.657 13.5721 225.698 12.8424 226.253C12.1127 226.807 11.0716 226.665 10.517 225.936Z" id="Circle" fill="#FFFFFF" fill-rule="evenodd" stroke="none" />
          <path d="M10.517 225.936C9.96243 225.206 10.1044 224.165 10.8341 223.61C11.5638 223.056 12.6049 223.198 13.1595 223.927C13.7141 224.657 13.5721 225.698 12.8424 226.253C12.1127 226.807 11.0716 226.665 10.517 225.936Z" id="Circle" fill="#FFFFFF" fill-rule="evenodd" stroke="none" />
          <path d="M11.9344 99.8227C11.3799 99.093 11.5218 98.0518 12.2515 97.4973C12.9812 96.9427 14.0223 97.0847 14.5769 97.8144C15.1315 98.5441 14.9895 99.5852 14.2598 100.14C13.5301 100.694 12.489 100.552 11.9344 99.8227Z" id="Circle" fill="#FFFFFF" fill-rule="evenodd" stroke="none" />
          <path d="M11.9344 99.8227C11.3799 99.093 11.5218 98.0518 12.2515 97.4973C12.9812 96.9427 14.0223 97.0847 14.5769 97.8144C15.1315 98.5441 14.9895 99.5852 14.2598 100.14C13.5301 100.694 12.489 100.552 11.9344 99.8227Z" id="Circle" fill="#FFFFFF" fill-rule="evenodd" stroke="none" />
          <path d="M0.338354 294.813C-0.216217 294.083 -0.0742529 293.042 0.655456 292.488C1.38515 291.933 2.42627 292.075 2.98084 292.805C3.53541 293.534 3.39345 294.576 2.66376 295.13C1.93405 295.685 0.892926 295.543 0.338354 294.813Z" id="Circle" fill="#FFFFFF" fill-rule="evenodd" stroke="none" />
          <path d="M0.338354 294.813C-0.216217 294.083 -0.0742529 293.042 0.655456 292.488C1.38515 291.933 2.42627 292.075 2.98084 292.805C3.53541 293.534 3.39345 294.576 2.66376 295.13C1.93405 295.685 0.892926 295.543 0.338354 294.813Z" id="Circle" fill="#FFFFFF" fill-rule="evenodd" stroke="none" />
          <path d="M35.9046 77.4986C36.3679 78.2894 36.1025 79.3061 35.3117 79.7694C34.5209 80.2328 33.5043 79.9673 33.0409 79.1765C32.5776 78.3858 32.843 77.3691 33.6338 76.9058C34.4246 76.4424 35.4412 76.7079 35.9046 77.4986Z" id="Circle" fill="#FFFFFF" fill-rule="evenodd" stroke="none" />
          <path d="M35.9046 77.4986C36.3679 78.2894 36.1025 79.3061 35.3117 79.7694C34.5209 80.2328 33.5043 79.9673 33.0409 79.1765C32.5776 78.3858 32.843 77.3691 33.6338 76.9058C34.4246 76.4424 35.4412 76.7079 35.9046 77.4986Z" id="Circle" fill="#FFFFFF" fill-rule="evenodd" stroke="none" />
          <path d="M257.634 120.237C258.097 121.028 257.832 122.044 257.041 122.508C256.25 122.971 255.233 122.706 254.77 121.915C254.307 121.124 254.572 120.107 255.363 119.644C256.154 119.181 257.171 119.446 257.634 120.237Z" id="Circle" fill="#FFFFFF" fill-rule="evenodd" stroke="none" />
          <path d="M257.634 120.237C258.097 121.028 257.832 122.044 257.041 122.508C256.25 122.971 255.233 122.706 254.77 121.915C254.307 121.124 254.572 120.107 255.363 119.644C256.154 119.181 257.171 119.446 257.634 120.237Z" id="Circle" fill="#FFFFFF" fill-rule="evenodd" stroke="none" />
          <path d="M257.634 120.237C258.097 121.028 257.832 122.044 257.041 122.508C256.25 122.971 255.233 122.706 254.77 121.915C254.307 121.124 254.572 120.107 255.363 119.644C256.154 119.181 257.171 119.446 257.634 120.237Z" id="Circle" fill="#FFFFFF" fill-rule="evenodd" stroke="none" />
          <path d="M257.634 120.237C258.097 121.028 257.832 122.044 257.041 122.508C256.25 122.971 255.233 122.706 254.77 121.915C254.307 121.124 254.572 120.107 255.363 119.644C256.154 119.181 257.171 119.446 257.634 120.237Z" id="Circle" fill="#FFFFFF" fill-rule="evenodd" stroke="none" />
          <path d="M98.823 300.873C99.2863 301.664 99.0208 302.68 98.23 303.144C97.4393 303.607 96.4226 303.342 95.9593 302.551C95.4959 301.76 95.7614 300.743 96.5522 300.28C97.343 299.817 98.3596 300.082 98.823 300.873Z" id="Circle" fill="#FFFFFF" fill-rule="evenodd" stroke="none" />
          <path d="M98.823 300.873C99.2863 301.664 99.0208 302.68 98.23 303.144C97.4393 303.607 96.4226 303.342 95.9593 302.551C95.4959 301.76 95.7614 300.743 96.5522 300.28C97.343 299.817 98.3596 300.082 98.823 300.873Z" id="Circle" fill="#FFFFFF" fill-rule="evenodd" stroke="none" />
          <path d="M331.329 145.258C331.792 146.048 331.527 147.065 330.736 147.528C329.945 147.992 328.929 147.726 328.465 146.936C328.002 146.145 328.267 145.128 329.058 144.665C329.849 144.201 330.866 144.467 331.329 145.258Z" id="Circle" fill="#FFFFFF" fill-rule="evenodd" stroke="none" />
          <path d="M331.329 145.258C331.792 146.048 331.527 147.065 330.736 147.528C329.945 147.992 328.929 147.726 328.465 146.936C328.002 146.145 328.267 145.128 329.058 144.665C329.849 144.201 330.866 144.467 331.329 145.258Z" id="Circle" fill="#FFFFFF" fill-rule="evenodd" stroke="none" />
          <path d="M107.085 37.0914C107.549 37.8822 107.283 38.8988 106.492 39.3622C105.702 39.8255 104.685 39.5601 104.222 38.7693C103.758 37.9785 104.024 36.9618 104.814 36.4985C105.605 36.0352 106.622 36.3006 107.085 37.0914Z" id="Circle" fill="#FFFFFF" fill-rule="evenodd" stroke="none" />
          <path d="M107.085 37.0914C107.549 37.8822 107.283 38.8988 106.492 39.3622C105.702 39.8255 104.685 39.5601 104.222 38.7693C103.758 37.9785 104.024 36.9618 104.814 36.4985C105.605 36.0352 106.622 36.3006 107.085 37.0914Z" id="Circle" fill="#FFFFFF" fill-rule="evenodd" stroke="none" />
          <path d="M137.59 186.566C138.054 187.356 137.788 188.373 136.997 188.836C136.206 189.3 135.19 189.034 134.727 188.243C134.263 187.453 134.529 186.436 135.319 185.973C136.11 185.509 137.127 185.775 137.59 186.566Z" id="Circle" fill="#FFFFFF" fill-rule="evenodd" stroke="none" />
          <path d="M137.59 186.566C138.054 187.356 137.788 188.373 136.997 188.836C136.206 189.3 135.19 189.034 134.727 188.243C134.263 187.453 134.529 186.436 135.319 185.973C136.11 185.509 137.127 185.775 137.59 186.566Z" id="Circle" fill="#FFFFFF" fill-rule="evenodd" stroke="none" />
          <path d="M175.975 366.98C176.439 367.771 176.173 368.788 175.383 369.251C174.592 369.714 173.575 369.449 173.112 368.658C172.648 367.867 172.914 366.851 173.705 366.387C174.495 365.924 175.512 366.19 175.975 366.98Z" id="Circle" fill="#FFFFFF" fill-rule="evenodd" stroke="none" />
          <path d="M175.975 366.98C176.439 367.771 176.173 368.788 175.383 369.251C174.592 369.714 173.575 369.449 173.112 368.658C172.648 367.867 172.914 366.851 173.705 366.387C174.495 365.924 175.512 366.19 175.975 366.98Z" id="Circle" fill="#FFFFFF" fill-rule="evenodd" stroke="none" />
          <path d="M288.095 273.674C288.558 274.465 288.293 275.481 287.502 275.945C286.711 276.408 285.694 276.143 285.231 275.352C284.768 274.561 285.033 273.544 285.824 273.081C286.615 272.618 287.631 272.883 288.095 273.674Z" id="Circle" fill="#FFFFFF" fill-rule="evenodd" stroke="none" />
          <path d="M288.095 273.674C288.558 274.465 288.293 275.481 287.502 275.945C286.711 276.408 285.694 276.143 285.231 275.352C284.768 274.561 285.033 273.544 285.824 273.081C286.615 272.618 287.631 272.883 288.095 273.674Z" id="Circle" fill="#FFFFFF" fill-rule="evenodd" stroke="none" />
          <path d="M268.557 287.331C269.02 288.122 268.755 289.139 267.964 289.602C267.173 290.065 266.156 289.8 265.693 289.009C265.23 288.218 265.495 287.202 266.286 286.738C267.077 286.275 268.093 286.54 268.557 287.331Z" id="Circle" fill="#FFFFFF" fill-rule="evenodd" stroke="none" />
          <path d="M268.557 287.331C269.02 288.122 268.755 289.139 267.964 289.602C267.173 290.065 266.156 289.8 265.693 289.009C265.23 288.218 265.495 287.202 266.286 286.738C267.077 286.275 268.093 286.54 268.557 287.331Z" id="Circle" fill="#FFFFFF" fill-rule="evenodd" stroke="none" />
          <path d="M217.391 0.820843C217.854 1.61163 217.589 2.62829 216.798 3.09163C216.007 3.55498 214.99 3.28953 214.527 2.49874C214.064 1.70796 214.329 0.691296 215.12 0.227952C215.911 -0.235392 216.927 0.0300577 217.391 0.820843Z" id="Circle" fill="#FFFFFF" fill-rule="evenodd" stroke="none" />
          <path d="M217.391 0.820843C217.854 1.61163 217.589 2.62829 216.798 3.09163C216.007 3.55498 214.99 3.28953 214.527 2.49874C214.064 1.70796 214.329 0.691296 215.12 0.227952C215.911 -0.235392 216.927 0.0300577 217.391 0.820843Z" id="Circle" fill="#FFFFFF" fill-rule="evenodd" stroke="none" />
          <path d="M146.426 204.441C146.89 205.231 146.624 206.248 145.833 206.711C145.042 207.175 144.026 206.909 143.563 206.119C143.099 205.328 143.365 204.311 144.155 203.848C144.946 203.384 145.963 203.65 146.426 204.441Z" id="Circle" fill="#FFFFFF" fill-rule="evenodd" stroke="none" />
          <path d="M146.426 204.441C146.89 205.231 146.624 206.248 145.833 206.711C145.042 207.175 144.026 206.909 143.563 206.119C143.099 205.328 143.365 204.311 144.155 203.848C144.946 203.384 145.963 203.65 146.426 204.441Z" id="Circle" fill="#FFFFFF" fill-rule="evenodd" stroke="none" />
        </g>
        <g id="Group" transform="translate(0.9671631 1.1290436)">
          <path d="M14.1025 111.394L200.497 3.77883C209.224 -1.25961 219.977 -1.25961 228.702 3.77883L415.097 111.394C423.824 116.432 429.201 125.744 429.201 135.82L429.201 351.051C429.201 361.127 423.824 370.439 415.097 375.476L228.702 483.092C219.977 488.131 209.224 488.131 200.497 483.092L14.1025 375.476C5.37703 370.439 0 361.127 0 351.051L0 135.82C0 125.744 5.37703 116.432 14.1025 111.394L14.1025 111.394Z" id="Shape" fill="none" fill-rule="evenodd" stroke="url(#gradient_6)" stroke-width="1.44601" />
        </g>
        <g id="Group">
          <path d="M14.1025 111.394L200.497 3.77883C209.223 -1.25961 219.975 -1.25961 228.702 3.77883L415.097 111.394C423.824 116.433 429.2 125.743 429.2 135.821L429.2 351.05C429.2 361.128 423.824 370.439 415.097 375.477L228.702 483.093C219.975 488.13 209.223 488.13 200.497 483.093L14.1025 375.477C5.3754 370.439 0 361.128 0 351.05L0 135.821C0 125.743 5.3754 116.433 14.1025 111.394L14.1025 111.394Z" id="Shape" fill="none" fill-rule="evenodd" stroke="url(#gradient_7)" stroke-width="1.44601" />
        </g>
      </g>
      <g id="Arrow" transform="matrix(1 0 0 -1 77.36128 349.7307)">
        <path d="M51.4339 5.6394C58.8874 -1.8798 70.9719 -1.8798 78.4255 5.6394L137.764 65.5009L64.9297 138.977L5.59016 79.1155C-1.86338 71.5963 -1.86338 59.4054 5.59016 51.8864L51.4339 5.6394L51.4339 5.6394Z" id="Shape" fill="url(#gradient_8)" fill-rule="evenodd" stroke="url(#gradient_3)" stroke-width="1" />
        <path d="M137.763 65.5009L210.598 138.977L137.763 212.454L64.928 138.977L137.763 65.5009Z" id="Rectangle" fill="url(#gradient_8)" fill-rule="evenodd" stroke="url(#gradient_3)" stroke-width="1" />
        <path d="M197.1 5.6394C204.554 -1.8798 216.639 -1.8798 224.092 5.6394L269.935 51.8864C277.389 59.4054 277.389 71.5963 269.935 79.1155L210.596 138.977L137.761 65.5009L197.1 5.6394L197.1 5.6394Z" id="Shape" fill="url(#gradient_8)" fill-rule="evenodd" stroke="url(#gradient_3)" stroke-width="1" />
      </g>
    </g>
  </g>
</svg>